<svg width="302" height="71" viewBox="0 0 302 71" fill="none" xmlns="http://www.w3.org/2000/svg">
<path d="M154.301 17.2058C151.195 13.8064 147.049 11.7468 142.721 11.1077C142.512 11.0696 142.297 11.0719 142.089 11.1146C141.881 11.1573 141.685 11.2394 141.513 11.3561C141.34 11.4728 141.194 11.6217 141.084 11.7938C140.974 11.966 140.901 12.1579 140.871 12.3581C140.84 12.5583 140.853 12.7627 140.907 12.9592C140.962 13.1557 141.057 13.3401 141.187 13.5016C141.318 13.6631 141.481 13.7983 141.667 13.8991C141.853 13.9999 142.058 14.0643 142.269 14.0884C145.879 14.6215 149.319 16.3278 151.917 19.1716C157.354 25.1222 157.113 33.8645 151.603 39.4125L148.516 36.033L145.551 46.5106L156.886 45.194L153.694 41.7005C160.486 35.0721 160.869 24.3947 154.301 17.2058ZM134.45 11.4895L123.115 12.8061L126.307 16.2996C119.515 22.928 119.132 33.6054 125.7 40.7943C128.806 44.1937 132.952 46.2534 137.28 46.8924C137.489 46.9305 137.704 46.9282 137.912 46.8855C138.12 46.8428 138.316 46.7607 138.488 46.644C138.661 46.5273 138.807 46.3784 138.917 46.2063C139.027 46.0342 139.1 45.8423 139.13 45.642C139.161 45.4418 139.148 45.2374 139.094 45.0409C139.039 44.8444 138.944 44.66 138.813 44.4985C138.683 44.337 138.52 44.2018 138.334 44.101C138.148 44.0002 137.943 43.9358 137.732 43.9117C134.122 43.3786 130.682 41.6723 128.084 38.8286C122.647 32.8779 122.888 24.1356 128.397 18.5876L131.485 21.9671L134.45 11.4895Z" fill="black"/>
<path d="M16.4802 45.155C14.2009 45.155 12.1407 44.8383 10.2997 44.205C8.45869 43.5717 7.00342 42.78 5.93389 41.83C4.86436 40.88 4.32959 39.9217 4.32959 38.955C4.32959 38.4883 4.46109 37.98 4.72409 37.43C4.98709 36.88 5.34652 36.4133 5.80239 36.03C6.25826 35.6467 6.76673 35.455 7.32779 35.455C7.88886 35.455 8.41486 35.6467 8.90579 36.03C9.39673 36.4133 9.95779 36.8633 10.589 37.38C11.2202 37.8967 11.9917 38.3467 12.9034 38.73C13.8151 39.1133 14.9373 39.305 16.2698 39.305C17.3218 39.305 18.2949 39.1467 19.1891 38.83C20.0833 38.5133 20.8022 38.0383 21.3457 37.405C21.8892 36.7717 22.161 35.955 22.161 34.955C22.161 33.8883 21.8629 32.9883 21.2668 32.255C20.6707 31.5217 19.8641 30.8883 18.8472 30.355C17.8303 29.8217 16.7257 29.305 15.5334 28.805C14.3411 28.305 13.1401 27.7717 11.9303 27.205C10.7205 26.6383 9.61589 25.955 8.61649 25.155C7.61709 24.355 6.81056 23.3717 6.19689 22.205C5.58322 21.0383 5.27639 19.605 5.27639 17.905C5.27639 16.0383 5.65336 14.4717 6.40729 13.205C7.16123 11.9383 8.16062 10.9133 9.40549 10.13C10.6504 9.34666 12.0267 8.78 13.5346 8.43C15.0425 8.08 16.5503 7.905 18.0582 7.905C18.8647 7.905 19.8203 7.96333 20.9249 8.08C22.0295 8.19666 23.1341 8.405 24.2387 8.705C25.3433 9.005 26.255 9.41333 26.9739 9.93C27.6928 10.4467 28.0522 11.105 28.0522 11.905C28.0522 12.305 27.9558 12.7717 27.7629 13.305C27.57 13.8383 27.272 14.3133 26.8687 14.73C26.4654 15.1467 25.9482 15.355 25.317 15.355C24.7559 15.355 24.2036 15.1967 23.6601 14.88C23.1166 14.5633 22.4152 14.2467 21.5561 13.93C20.697 13.6133 19.531 13.455 18.0582 13.455C16.8309 13.455 15.7613 13.6133 14.8496 13.93C13.9379 14.2467 13.2541 14.68 12.7982 15.23C12.3423 15.78 12.1144 16.4717 12.1144 17.305C12.1144 18.1717 12.4212 18.905 13.0349 19.505C13.6486 20.105 14.4551 20.6383 15.4545 21.105C16.4539 21.5717 17.5497 22.0383 18.742 22.505C19.9343 22.9717 21.1353 23.5133 22.3451 24.13C23.5549 24.7467 24.6683 25.4883 25.6852 26.355C26.7021 27.2217 27.5087 28.2967 28.1048 29.58C28.7009 30.8633 28.999 32.4383 28.999 34.305C28.999 36.6717 28.4555 38.6633 27.3684 40.28C26.2813 41.8967 24.7998 43.1133 22.9237 43.93C21.0476 44.7467 18.8998 45.155 16.4802 45.155ZM45.568 44.705C44.7264 44.705 43.9462 44.53 43.2273 44.18C42.5084 43.83 42.149 43.3217 42.149 42.655V30.055C42.149 29.8217 42.0964 29.605 41.9912 29.405L31.103 11.505C31.0329 11.3717 30.989 11.2467 30.9715 11.13C30.954 11.0133 30.9452 10.9217 30.9452 10.855C30.9452 10.3217 31.1907 9.855 31.6816 9.455C32.1725 9.055 32.7687 8.73833 33.47 8.505C34.1713 8.27166 34.8376 8.155 35.4688 8.155C36.0299 8.155 36.4507 8.26333 36.7312 8.48C37.0117 8.69666 37.2747 9.02166 37.5202 9.455L45.568 23.905L53.5632 9.455C53.8437 9.02166 54.1243 8.69666 54.4048 8.48C54.6853 8.26333 55.1061 8.155 55.6672 8.155C56.2984 8.155 56.9559 8.27166 57.6397 8.505C58.3235 8.73833 58.9196 9.055 59.4281 9.455C59.9366 9.855 60.1908 10.3217 60.1908 10.855C60.1908 10.9217 60.182 11.0133 60.1645 11.13C60.147 11.2467 60.1031 11.3717 60.033 11.505L49.1448 29.405C49.0396 29.605 48.987 29.8217 48.987 30.055V42.655C48.987 43.3217 48.6276 43.83 47.9087 44.18C47.1898 44.53 46.4096 44.705 45.568 44.705ZM67.1866 44.705C66.345 44.705 65.5648 44.53 64.8459 44.18C64.127 43.83 63.7676 43.3217 63.7676 42.655V10.205C63.7676 9.505 64.127 8.98833 64.8459 8.655C65.5648 8.32167 66.345 8.155 67.1866 8.155C68.0282 8.155 68.7208 8.23833 69.2643 8.405C69.8078 8.57167 70.3163 8.89666 70.7897 9.38C71.2631 9.86333 71.7628 10.605 72.2888 11.605L82.4406 30.255V10.155C82.4406 9.455 82.8 8.94666 83.5189 8.63C84.2378 8.31333 85.018 8.155 85.8596 8.155C86.7363 8.155 87.5253 8.31333 88.2266 8.63C88.9279 8.94666 89.2786 9.455 89.2786 10.155V42.655C89.2786 43.3217 88.9279 43.83 88.2266 44.18C87.5253 44.53 86.7363 44.705 85.8596 44.705C85.0531 44.705 84.3079 44.555 83.6241 44.255C82.9403 43.955 82.388 43.4217 81.9672 42.655L70.6056 22.555V42.655C70.6056 43.3217 70.2549 43.83 69.5536 44.18C68.8523 44.53 68.0633 44.705 67.1866 44.705ZM107.373 45.005C105.199 45.005 103.183 44.63 101.324 43.88C99.4655 43.13 97.9927 41.9133 96.9056 40.23C95.8185 38.5467 95.275 36.3217 95.275 33.555V19.605C95.275 16.8383 95.8185 14.6133 96.9056 12.93C97.9927 11.2467 99.4655 10.03 101.324 9.28C103.183 8.53 105.216 8.155 107.426 8.155C109.88 8.155 112.046 8.54666 113.922 9.33C115.798 10.1133 117.271 11.205 118.34 12.605C119.41 14.005 119.944 15.6883 119.944 17.655C119.944 18.955 119.664 19.8133 119.103 20.23C118.542 20.6467 117.683 20.855 116.525 20.855C115.579 20.855 114.781 20.6967 114.132 20.38C113.483 20.0633 113.141 19.5383 113.106 18.805C113.106 18.405 113.045 17.93 112.922 17.38C112.8 16.83 112.563 16.2883 112.212 15.755C111.862 15.2217 111.327 14.7717 110.608 14.405C109.889 14.0383 108.898 13.855 107.636 13.855C105.848 13.855 104.471 14.33 103.507 15.28C102.543 16.23 102.06 17.6717 102.06 19.605V33.555C102.06 35.5217 102.551 36.9717 103.533 37.905C104.515 38.8383 105.918 39.305 107.741 39.305C108.933 39.305 109.88 39.1217 110.582 38.755C111.283 38.3883 111.8 37.93 112.133 37.38C112.466 36.83 112.694 36.255 112.817 35.655C112.94 35.055 113.036 34.4883 113.106 33.955C113.177 33.1883 113.527 32.655 114.158 32.355C114.79 32.055 115.561 31.905 116.473 31.905C117.665 31.905 118.542 32.1217 119.103 32.555C119.664 32.9883 119.944 33.8383 119.944 35.105C119.944 37.105 119.41 38.855 118.34 40.355C117.271 41.855 115.789 43.005 113.895 43.805C112.002 44.605 109.828 45.005 107.373 45.005Z" fill="black"/>
<path d="M164.857 44.705C164.015 44.705 163.235 44.53 162.516 44.18C161.797 43.83 161.438 43.3217 161.438 42.655V10.155C161.438 9.62166 161.684 9.155 162.174 8.755C162.665 8.355 163.297 8.155 164.068 8.155H174.588C176.832 8.155 178.857 8.52166 180.663 9.255C182.469 9.98833 183.898 11.18 184.95 12.83C186.002 14.48 186.528 16.6717 186.528 19.405V19.705C186.528 22.4383 185.985 24.6383 184.898 26.305C183.811 27.9717 182.329 29.18 180.453 29.93C178.577 30.68 176.482 31.055 174.167 31.055H168.276V42.655C168.276 43.3217 167.925 43.83 167.224 44.18C166.523 44.53 165.734 44.705 164.857 44.705ZM168.276 13.855V25.955H174.167C175.921 25.955 177.279 25.48 178.244 24.53C179.208 23.58 179.69 22.1383 179.69 20.205V19.605C179.69 17.6717 179.208 16.23 178.244 15.28C177.279 14.33 175.921 13.855 174.167 13.855H168.276ZM194.155 44.705C193.314 44.705 192.533 44.53 191.815 44.18C191.096 43.83 190.736 43.3217 190.736 42.655V10.155C190.736 9.455 191.096 8.94666 191.815 8.63C192.533 8.31333 193.314 8.155 194.155 8.155C195.032 8.155 195.821 8.31333 196.522 8.63C197.224 8.94666 197.574 9.455 197.574 10.155V23.205H209.409V10.155C209.409 9.455 209.769 8.94666 210.488 8.63C211.206 8.31333 211.987 8.155 212.828 8.155C213.705 8.155 214.494 8.31333 215.195 8.63C215.897 8.94666 216.247 9.455 216.247 10.155V42.655C216.247 43.3217 215.897 43.83 215.195 44.18C214.494 44.53 213.705 44.705 212.828 44.705C211.987 44.705 211.206 44.53 210.488 44.18C209.769 43.83 209.409 43.3217 209.409 42.655V28.305H197.574V42.655C197.574 43.3217 197.224 43.83 196.522 44.18C195.821 44.53 195.032 44.705 194.155 44.705ZM226.031 44.705C225.189 44.705 224.409 44.53 223.69 44.18C222.971 43.83 222.612 43.3217 222.612 42.655V10.155C222.612 9.455 222.971 8.94666 223.69 8.63C224.409 8.31333 225.189 8.155 226.031 8.155C226.908 8.155 227.697 8.31333 228.398 8.63C229.099 8.94666 229.45 9.455 229.45 10.155V42.655C229.45 43.3217 229.099 43.83 228.398 44.18C227.697 44.53 226.908 44.705 226.031 44.705ZM255.539 44.705H238.813C238.076 44.705 237.392 44.53 236.761 44.18C236.13 43.83 235.814 43.3217 235.814 42.655V10.155C235.814 9.455 236.174 8.94666 236.893 8.63C237.612 8.31333 238.392 8.155 239.233 8.155C240.11 8.155 240.899 8.31333 241.6 8.63C242.302 8.94666 242.652 9.455 242.652 10.155V39.005H255.539C256.206 39.005 256.705 39.2967 257.039 39.88C257.372 40.4633 257.538 41.1217 257.538 41.855C257.538 42.555 257.372 43.205 257.039 43.805C256.705 44.405 256.206 44.705 255.539 44.705ZM264.639 44.705C263.798 44.705 263.017 44.53 262.299 44.18C261.58 43.83 261.22 43.3217 261.22 42.655V10.155C261.22 9.455 261.58 8.94666 262.299 8.63C263.017 8.31333 263.798 8.155 264.639 8.155C265.516 8.155 266.305 8.31333 267.006 8.63C267.708 8.94666 268.058 9.455 268.058 10.155V42.655C268.058 43.3217 267.708 43.83 267.006 44.18C266.305 44.53 265.516 44.705 264.639 44.705ZM276.053 44.705C275.422 44.705 274.774 44.5883 274.107 44.355C273.441 44.1217 272.88 43.805 272.424 43.405C271.968 43.005 271.74 42.5383 271.74 42.005C271.74 41.905 271.758 41.7383 271.793 41.505L281.945 10.055C282.19 9.32166 282.742 8.77166 283.602 8.405C284.461 8.03833 285.381 7.855 286.363 7.855C287.38 7.855 288.309 8.03833 289.151 8.405C289.992 8.77166 290.536 9.32166 290.781 10.055L300.933 41.505C301.003 41.7383 301.038 41.905 301.038 42.005C301.038 42.505 300.802 42.9633 300.328 43.38C299.855 43.7967 299.285 44.1217 298.619 44.355C297.953 44.5883 297.304 44.705 296.673 44.705C296.112 44.705 295.629 44.6133 295.226 44.43C294.823 44.2467 294.551 43.905 294.411 43.405L292.412 36.755H280.314L278.368 43.405C278.228 43.905 277.947 44.2467 277.526 44.43C277.105 44.6133 276.615 44.705 276.053 44.705ZM286.363 16.305L281.787 31.655H290.939L286.363 16.305Z" fill="black"/>
<path d="M5.61586 67V53.1818H14.6031V55.2802H8.11905V59.0316H14.1375V61.13H8.11905V64.9016H14.657V67H5.61586ZM19.0461 56.6364L21.1377 60.462L23.2631 56.6364H25.8472L22.7233 61.8182L25.9012 67H23.3305L21.1377 63.2688L18.9651 67H16.3742L19.5319 61.8182L16.4552 56.6364H19.0461ZM32.9115 56.6364V58.5256H26.9537V56.6364H32.9115ZM28.4246 54.1534H30.8671V63.8828C30.8671 64.2112 30.9166 64.4631 31.0155 64.6385C31.119 64.8094 31.2539 64.9264 31.4204 64.9893C31.5868 65.0523 31.7712 65.0838 31.9736 65.0838C32.1266 65.0838 32.266 65.0726 32.392 65.0501C32.5224 65.0276 32.6214 65.0073 32.6888 64.9893L33.1004 66.8988C32.97 66.9438 32.7833 66.9933 32.5404 67.0472C32.302 67.1012 32.0096 67.1327 31.6633 67.1417C31.0515 67.1597 30.5005 67.0675 30.0102 66.8651C29.5199 66.6581 29.1308 66.3388 28.843 65.907C28.5596 65.4751 28.4201 64.9354 28.4246 64.2876V54.1534ZM34.9542 67V56.6364H37.3224V58.3636H37.4304C37.6193 57.7654 37.9432 57.3043 38.402 56.9805C38.8653 56.6521 39.3938 56.4879 39.9876 56.4879C40.1225 56.4879 40.2732 56.4947 40.4396 56.5082C40.6106 56.5172 40.7522 56.5329 40.8647 56.5554V58.8022C40.7612 58.7662 40.5971 58.7347 40.3722 58.7077C40.1518 58.6763 39.9381 58.6605 39.7312 58.6605C39.2859 58.6605 38.8855 58.7572 38.5302 58.9506C38.1793 59.1396 37.9027 59.4027 37.7003 59.7401C37.4979 60.0774 37.3967 60.4665 37.3967 60.9073V67H34.9542ZM45.2841 67.2092C44.6274 67.2092 44.0359 67.0922 43.5096 66.8583C42.9878 66.6199 42.574 66.2691 42.2681 65.8058C41.9667 65.3424 41.8161 64.7712 41.8161 64.092C41.8161 63.5072 41.924 63.0237 42.1399 62.6413C42.3558 62.259 42.6504 61.9531 43.0238 61.7237C43.3971 61.4943 43.8177 61.3211 44.2855 61.2042C44.7578 61.0827 45.2459 60.995 45.7496 60.9411C46.3569 60.8781 46.8494 60.8219 47.2273 60.7724C47.6051 60.7184 47.8795 60.6374 48.0504 60.5295C48.2259 60.417 48.3136 60.2438 48.3136 60.0099V59.9695C48.3136 59.4612 48.1629 59.0676 47.8615 58.7887C47.5601 58.5098 47.1261 58.3704 46.5593 58.3704C45.9611 58.3704 45.4865 58.5008 45.1357 58.7617C44.7893 59.0226 44.5554 59.3307 44.4339 59.6861L42.1534 59.3622C42.3333 58.7325 42.6302 58.2062 43.044 57.7834C43.4579 57.3561 43.9639 57.0367 44.5621 56.8253C45.1604 56.6094 45.8216 56.5014 46.5458 56.5014C47.0451 56.5014 47.5421 56.5599 48.0369 56.6768C48.5317 56.7938 48.9838 56.9872 49.3931 57.2571C49.8024 57.5225 50.1308 57.8846 50.3782 58.3434C50.6301 58.8022 50.756 59.3757 50.756 60.0639V67H48.408V65.5763H48.3271C48.1786 65.8642 47.9695 66.1341 47.6996 66.386C47.4342 66.6334 47.0991 66.8336 46.6942 66.9865C46.2939 67.1349 45.8239 67.2092 45.2841 67.2092ZM45.9183 65.4144C46.4086 65.4144 46.8337 65.3177 47.1935 65.1243C47.5534 64.9264 47.83 64.6655 48.0234 64.3416C48.2214 64.0178 48.3203 63.6647 48.3203 63.2823V62.0611C48.2438 62.1241 48.1134 62.1825 47.929 62.2365C47.7491 62.2905 47.5466 62.3377 47.3217 62.3782C47.0968 62.4187 46.8742 62.4547 46.6538 62.4862C46.4334 62.5176 46.2422 62.5446 46.0803 62.5671C45.7159 62.6166 45.3898 62.6976 45.1019 62.81C44.814 62.9225 44.5869 63.0799 44.4205 63.2823C44.254 63.4802 44.1708 63.7366 44.1708 64.0515C44.1708 64.5013 44.335 64.8409 44.6634 65.0703C44.9917 65.2997 45.41 65.4144 45.9183 65.4144ZM57.7326 67.2024C56.698 67.2024 55.8097 66.9753 55.0675 66.521C54.3298 66.0666 53.7608 65.4392 53.3604 64.6385C52.9646 63.8333 52.7667 62.9067 52.7667 61.8587C52.7667 60.8061 52.9691 59.8772 53.3739 59.0721C53.7788 58.2624 54.35 57.6327 55.0877 57.1829C55.8299 56.7286 56.707 56.5014 57.7191 56.5014C58.5603 56.5014 59.3047 56.6566 59.9524 56.967C60.6046 57.2728 61.1242 57.7069 61.511 58.2692C61.8978 58.8269 62.1183 59.4792 62.1722 60.2259H59.8377C59.7433 59.7266 59.5183 59.3105 59.163 58.9776C58.8121 58.6403 58.3421 58.4716 57.7528 58.4716C57.2536 58.4716 56.815 58.6065 56.4371 58.8764C56.0593 59.1418 55.7647 59.5241 55.5533 60.0234C55.3464 60.5227 55.2429 61.121 55.2429 61.8182C55.2429 62.5244 55.3464 63.1316 55.5533 63.6399C55.7602 64.1437 56.0503 64.5328 56.4237 64.8072C56.8015 65.0771 57.2446 65.212 57.7528 65.212C58.1127 65.212 58.4343 65.1445 58.7177 65.0096C59.0056 64.8701 59.2462 64.67 59.4396 64.4091C59.633 64.1482 59.7657 63.8311 59.8377 63.4577H62.1722C62.1138 64.1909 61.8978 64.8409 61.5245 65.4077C61.1512 65.9699 60.6429 66.4107 59.9996 66.7301C59.3564 67.045 58.6007 67.2024 57.7326 67.2024ZM69.3529 56.6364V58.5256H63.3952V56.6364H69.3529ZM64.866 54.1534H67.3085V63.8828C67.3085 64.2112 67.358 64.4631 67.4569 64.6385C67.5604 64.8094 67.6953 64.9264 67.8618 64.9893C68.0282 65.0523 68.2126 65.0838 68.415 65.0838C68.568 65.0838 68.7074 65.0726 68.8334 65.0501C68.9638 65.0276 69.0628 65.0073 69.1302 64.9893L69.5418 66.8988C69.4114 66.9438 69.2247 66.9933 68.9818 67.0472C68.7434 67.1012 68.451 67.1327 68.1047 67.1417C67.4929 67.1597 66.9419 67.0675 66.4516 66.8651C65.9613 66.6581 65.5722 66.3388 65.2844 65.907C65.001 65.4751 64.8615 64.9354 64.866 64.2876V54.1534ZM80.2377 67.2024C79.2931 67.2024 78.4812 67.0315 77.802 66.6896C77.1228 66.3478 76.5988 65.8867 76.2299 65.3065C75.8656 64.7217 75.6834 64.0627 75.6834 63.3295C75.6834 62.7763 75.7959 62.286 76.0208 61.8587C76.2502 61.4313 76.565 61.0355 76.9654 60.6712C77.3702 60.3068 77.838 59.9447 78.3688 59.5849L80.818 57.9183C81.1779 57.6844 81.45 57.437 81.6344 57.1761C81.8233 56.9152 81.9178 56.6094 81.9178 56.2585C81.9178 55.9616 81.7918 55.6805 81.54 55.4151C81.2926 55.1497 80.9507 55.017 80.5144 55.017C80.222 55.017 79.9634 55.0868 79.7385 55.2262C79.5181 55.3612 79.3449 55.5388 79.2189 55.7592C79.0975 55.9796 79.0368 56.2135 79.0368 56.4609C79.0368 56.7623 79.12 57.0682 79.2864 57.3786C79.4573 57.6889 79.6777 58.0105 79.9476 58.3434C80.222 58.6763 80.5144 59.0294 80.8248 59.4027L87.3088 67H84.6639L79.2797 60.8331C78.8793 60.3653 78.4925 59.9042 78.1191 59.4499C77.7503 58.9956 77.4467 58.5233 77.2083 58.033C76.9744 57.5382 76.8574 57.003 76.8574 56.4272C76.8574 55.775 77.0081 55.1925 77.3095 54.6797C77.6109 54.1624 78.0314 53.7553 78.5712 53.4585C79.1155 53.1616 79.752 53.0131 80.4806 53.0131C81.2093 53.0131 81.8346 53.1571 82.3564 53.445C82.8781 53.7328 83.2807 54.1152 83.5641 54.592C83.8475 55.0688 83.9892 55.5883 83.9892 56.1506C83.9892 56.8028 83.8272 57.3875 83.5034 57.9048C83.1795 58.4176 82.7297 58.8832 82.1539 59.3015L79.3606 61.3459C78.9018 61.6787 78.5734 62.0161 78.3755 62.358C78.1776 62.6953 78.0787 62.9832 78.0787 63.2216C78.0787 63.5859 78.1709 63.9165 78.3553 64.2134C78.5397 64.5103 78.7984 64.7487 79.1312 64.9286C79.4686 65.104 79.8622 65.1918 80.312 65.1918C80.8068 65.1918 81.2948 65.0816 81.7761 64.8612C82.2574 64.6362 82.696 64.3169 83.0918 63.9031C83.4876 63.4892 83.8025 62.9944 84.0364 62.4187C84.2703 61.8384 84.3873 61.1952 84.3873 60.489H86.4856C86.4856 61.3616 86.3889 62.1218 86.1955 62.7695C86.0021 63.4128 85.7524 63.957 85.4466 64.4023C85.1407 64.8432 84.8168 65.1963 84.475 65.4616C84.367 65.5381 84.2636 65.6146 84.1646 65.6911C84.0656 65.7675 83.9622 65.844 83.8542 65.9205C83.3684 66.3613 82.7994 66.6851 82.1472 66.892C81.4995 67.099 80.863 67.2024 80.2377 67.2024ZM101.038 56.9805C100.975 56.3912 100.709 55.9324 100.241 55.604C99.7781 55.2757 99.1753 55.1115 98.4332 55.1115C97.9114 55.1115 97.4638 55.1902 97.0905 55.3477C96.7171 55.5051 96.4315 55.7187 96.2336 55.9886C96.0357 56.2585 95.9345 56.5666 95.93 56.913C95.93 57.2009 95.9952 57.4505 96.1256 57.6619C96.2606 57.8733 96.4427 58.0533 96.6721 58.2017C96.9015 58.3456 97.1557 58.4671 97.4346 58.5661C97.7135 58.665 97.9946 58.7482 98.278 58.8157L99.5734 59.1396C100.095 59.261 100.597 59.4252 101.078 59.6321C101.564 59.839 101.998 60.0999 102.38 60.4148C102.767 60.7296 103.073 61.1097 103.298 61.555C103.523 62.0004 103.635 62.5221 103.635 63.1204C103.635 63.93 103.428 64.643 103.014 65.2592C102.601 65.871 102.002 66.35 101.22 66.6964C100.442 67.0382 99.4992 67.2092 98.3927 67.2092C97.3176 67.2092 96.3843 67.0427 95.5926 66.7099C94.8054 66.377 94.1892 65.8912 93.7439 65.2525C93.3031 64.6138 93.0647 63.8356 93.0287 62.918H95.4914C95.5274 63.3993 95.6758 63.7996 95.9367 64.119C96.1976 64.4383 96.5372 64.6767 96.9555 64.8342C97.3783 64.9916 97.8506 65.0703 98.3724 65.0703C98.9167 65.0703 99.3935 64.9893 99.8028 64.8274C100.217 64.661 100.541 64.4316 100.774 64.1392C101.008 63.8423 101.128 63.496 101.132 63.1001C101.128 62.7403 101.022 62.4434 100.815 62.2095C100.608 61.9711 100.318 61.7732 99.9445 61.6158C99.5757 61.4538 99.1439 61.3099 98.6491 61.1839L97.077 60.7791C95.939 60.4867 95.0393 60.0437 94.3781 59.4499C93.7214 58.8517 93.393 58.0578 93.393 57.0682C93.393 56.254 93.6134 55.5411 94.0542 54.9293C94.4996 54.3176 95.1046 53.843 95.8692 53.5057C96.6339 53.1638 97.4998 52.9929 98.4669 52.9929C99.4475 52.9929 100.307 53.1638 101.044 53.5057C101.786 53.843 102.369 54.3131 102.792 54.9158C103.215 55.5141 103.433 56.2023 103.446 56.9805H101.038ZM107.277 70.8864C106.944 70.8864 106.636 70.8594 106.353 70.8054C106.074 70.7559 105.851 70.6974 105.685 70.63L106.251 68.7273C106.607 68.8307 106.924 68.8802 107.203 68.8757C107.482 68.8712 107.727 68.7835 107.938 68.6126C108.154 68.4461 108.336 68.1673 108.485 67.7759L108.694 67.2159L104.936 56.6364H107.527L109.915 64.4631H110.023L112.418 56.6364H115.016L110.866 68.255C110.673 68.8037 110.417 69.2738 110.097 69.6651C109.778 70.061 109.387 70.3623 108.923 70.5692C108.464 70.7807 107.916 70.8864 107.277 70.8864ZM119.149 60.9276V67H116.706V56.6364H119.041V58.3974H119.162C119.401 57.8171 119.781 57.3561 120.302 57.0142C120.829 56.6723 121.479 56.5014 122.252 56.5014C122.968 56.5014 123.59 56.6544 124.121 56.9602C124.657 57.2661 125.07 57.7092 125.363 58.2894C125.66 58.8697 125.806 59.5736 125.801 60.4013V67H123.359V60.7791C123.359 60.0864 123.179 59.5444 122.819 59.1531C122.464 58.7617 121.971 58.5661 121.341 58.5661C120.914 58.5661 120.534 58.6605 120.201 58.8494C119.873 59.0339 119.614 59.3015 119.425 59.6523C119.241 60.0032 119.149 60.4283 119.149 60.9276ZM132.805 67.2024C131.77 67.2024 130.882 66.9753 130.14 66.521C129.402 66.0666 128.833 65.4392 128.433 64.6385C128.037 63.8333 127.839 62.9067 127.839 61.8587C127.839 60.8061 128.041 59.8772 128.446 59.0721C128.851 58.2624 129.422 57.6327 130.16 57.1829C130.902 56.7286 131.779 56.5014 132.791 56.5014C133.633 56.5014 134.377 56.6566 135.025 56.967C135.677 57.2728 136.196 57.7069 136.583 58.2692C136.97 58.8269 137.191 59.4792 137.244 60.2259H134.91C134.816 59.7266 134.591 59.3105 134.235 58.9776C133.884 58.6403 133.414 58.4716 132.825 58.4716C132.326 58.4716 131.887 58.6065 131.509 58.8764C131.132 59.1418 130.837 59.5241 130.626 60.0234C130.419 60.5227 130.315 61.121 130.315 61.8182C130.315 62.5244 130.419 63.1316 130.626 63.6399C130.832 64.1437 131.123 64.5328 131.496 64.8072C131.874 65.0771 132.317 65.212 132.825 65.212C133.185 65.212 133.507 65.1445 133.79 65.0096C134.078 64.8701 134.318 64.67 134.512 64.4091C134.705 64.1482 134.838 63.8311 134.91 63.4577H137.244C137.186 64.1909 136.97 64.8409 136.597 65.4077C136.223 65.9699 135.715 66.4107 135.072 66.7301C134.429 67.045 133.673 67.2024 132.805 67.2024ZM143.126 53.1818H145.953L149.334 59.2947H149.469L152.849 53.1818H155.676L150.649 61.8452V67H148.153V61.8452L143.126 53.1818ZM159.932 67.2024C158.92 67.2024 158.043 66.9798 157.3 66.5344C156.558 66.0891 155.982 65.4661 155.573 64.6655C155.168 63.8648 154.966 62.9292 154.966 61.8587C154.966 60.7881 155.168 59.8503 155.573 59.0451C155.982 58.2399 156.558 57.6147 157.3 57.1694C158.043 56.7241 158.92 56.5014 159.932 56.5014C160.944 56.5014 161.821 56.7241 162.563 57.1694C163.305 57.6147 163.879 58.2399 164.284 59.0451C164.693 59.8503 164.898 60.7881 164.898 61.8587C164.898 62.9292 164.693 63.8648 164.284 64.6655C163.879 65.4661 163.305 66.0891 162.563 66.5344C161.821 66.9798 160.944 67.2024 159.932 67.2024ZM159.945 65.2457C160.494 65.2457 160.953 65.0951 161.322 64.7937C161.691 64.4878 161.965 64.0785 162.145 63.5657C162.329 63.0529 162.422 62.4817 162.422 61.8519C162.422 61.2177 162.329 60.6442 162.145 60.1314C161.965 59.6141 161.691 59.2025 161.322 58.8967C160.953 58.5908 160.494 58.4379 159.945 58.4379C159.383 58.4379 158.915 58.5908 158.542 58.8967C158.173 59.2025 157.896 59.6141 157.712 60.1314C157.532 60.6442 157.442 61.2177 157.442 61.8519C157.442 62.4817 157.532 63.0529 157.712 63.5657C157.896 64.0785 158.173 64.4878 158.542 64.7937C158.915 65.0951 159.383 65.2457 159.945 65.2457ZM173.576 62.6413V56.6364H176.019V67H173.65V65.158H173.543C173.309 65.7383 172.924 66.2128 172.389 66.5817C171.858 66.9505 171.204 67.1349 170.425 67.1349C169.746 67.1349 169.146 66.9843 168.624 66.6829C168.107 66.377 167.702 65.9339 167.409 65.3537C167.117 64.7689 166.971 64.0627 166.971 63.2351V56.6364H169.413V62.8572C169.413 63.514 169.593 64.0357 169.953 64.4226C170.313 64.8094 170.785 65.0028 171.37 65.0028C171.73 65.0028 172.078 64.9151 172.416 64.7397C172.753 64.5643 173.03 64.3034 173.246 63.957C173.466 63.6062 173.576 63.1676 173.576 62.6413ZM178.53 67V56.6364H180.899V58.3636H181.007C181.195 57.7654 181.519 57.3043 181.978 56.9805C182.441 56.6521 182.97 56.4879 183.564 56.4879C183.699 56.4879 183.849 56.4947 184.016 56.5082C184.187 56.5172 184.328 56.5329 184.441 56.5554V58.8022C184.337 58.7662 184.173 58.7347 183.948 58.7077C183.728 58.6763 183.514 58.6605 183.307 58.6605C182.862 58.6605 182.462 58.7572 182.106 58.9506C181.756 59.1396 181.479 59.4027 181.276 59.7401C181.074 60.0774 180.973 60.4665 180.973 60.9073V67H178.53ZM193.792 67L189.893 53.1818H192.585L195.074 63.3363H195.203L197.861 53.1818H200.31L202.975 63.343H203.097L205.586 53.1818H208.279L204.379 67H201.909L199.143 57.3043H199.035L196.262 67H193.792ZM211.831 67.2092C211.174 67.2092 210.583 67.0922 210.056 66.8583C209.535 66.6199 209.121 66.2691 208.815 65.8058C208.514 65.3424 208.363 64.7712 208.363 64.092C208.363 63.5072 208.471 63.0237 208.687 62.6413C208.903 62.259 209.197 61.9531 209.571 61.7237C209.944 61.4943 210.365 61.3211 210.832 61.2042C211.305 61.0827 211.793 60.995 212.297 60.9411C212.904 60.8781 213.396 60.8219 213.774 60.7724C214.152 60.7184 214.426 60.6374 214.597 60.5295C214.773 60.417 214.86 60.2438 214.86 60.0099V59.9695C214.86 59.4612 214.71 59.0676 214.408 58.7887C214.107 58.5098 213.673 58.3704 213.106 58.3704C212.508 58.3704 212.033 58.5008 211.683 58.7617C211.336 59.0226 211.102 59.3307 210.981 59.6861L208.7 59.3622C208.88 58.7325 209.177 58.2062 209.591 57.7834C210.005 57.3561 210.511 57.0367 211.109 56.8253C211.707 56.6094 212.368 56.5014 213.093 56.5014C213.592 56.5014 214.089 56.5599 214.584 56.6768C215.079 56.7938 215.531 56.9872 215.94 57.2571C216.349 57.5225 216.678 57.8846 216.925 58.3434C217.177 58.8022 217.303 59.3757 217.303 60.0639V67H214.955V65.5763H214.874C214.725 65.8642 214.516 66.1341 214.246 66.386C213.981 66.6334 213.646 66.8336 213.241 66.9865C212.841 67.1349 212.371 67.2092 211.831 67.2092ZM212.465 65.4144C212.955 65.4144 213.381 65.3177 213.74 65.1243C214.1 64.9264 214.377 64.6655 214.57 64.3416C214.768 64.0178 214.867 63.6647 214.867 63.2823V62.0611C214.791 62.1241 214.66 62.1825 214.476 62.2365C214.296 62.2905 214.094 62.3377 213.869 62.3782C213.644 62.4187 213.421 62.4547 213.201 62.4862C212.98 62.5176 212.789 62.5446 212.627 62.5671C212.263 62.6166 211.937 62.6976 211.649 62.81C211.361 62.9225 211.134 63.0799 210.967 63.2823C210.801 63.4802 210.718 63.7366 210.718 64.0515C210.718 64.5013 210.882 64.8409 211.21 65.0703C211.539 65.2997 211.957 65.4144 212.465 65.4144ZM224.934 56.6364V58.5256H218.976V56.6364H224.934ZM220.447 54.1534H222.89V63.8828C222.89 64.2112 222.939 64.4631 223.038 64.6385C223.141 64.8094 223.276 64.9264 223.443 64.9893C223.609 65.0523 223.794 65.0838 223.996 65.0838C224.149 65.0838 224.288 65.0726 224.414 65.0501C224.545 65.0276 224.644 65.0073 224.711 64.9893L225.123 66.8988C224.992 66.9438 224.806 66.9933 224.563 67.0472C224.324 67.1012 224.032 67.1327 223.686 67.1417C223.074 67.1597 222.523 67.0675 222.033 66.8651C221.542 66.6581 221.153 66.3388 220.865 65.907C220.582 65.4751 220.443 64.9354 220.447 64.2876V54.1534ZM231.386 67.2024C230.351 67.2024 229.463 66.9753 228.721 66.521C227.983 66.0666 227.414 65.4392 227.014 64.6385C226.618 63.8333 226.42 62.9067 226.42 61.8587C226.42 60.8061 226.622 59.8772 227.027 59.0721C227.432 58.2624 228.003 57.6327 228.741 57.1829C229.483 56.7286 230.36 56.5014 231.372 56.5014C232.214 56.5014 232.958 56.6566 233.606 56.967C234.258 57.2728 234.777 57.7069 235.164 58.2692C235.551 58.8269 235.772 59.4792 235.826 60.2259H233.491C233.397 59.7266 233.172 59.3105 232.816 58.9776C232.465 58.6403 231.995 58.4716 231.406 58.4716C230.907 58.4716 230.468 58.6065 230.09 58.8764C229.713 59.1418 229.418 59.5241 229.207 60.0234C229 60.5227 228.896 61.121 228.896 61.8182C228.896 62.5244 229 63.1316 229.207 63.6399C229.414 64.1437 229.704 64.5328 230.077 64.8072C230.455 65.0771 230.898 65.212 231.406 65.212C231.766 65.212 232.088 65.1445 232.371 65.0096C232.659 64.8701 232.9 64.67 233.093 64.4091C233.286 64.1482 233.419 63.8311 233.491 63.4577H235.826C235.767 64.1909 235.551 64.8409 235.178 65.4077C234.804 65.9699 234.296 66.4107 233.653 66.7301C233.01 67.045 232.254 67.2024 231.386 67.2024ZM240.274 60.9276V67H237.831V53.1818H240.22V58.3974H240.341C240.584 57.8126 240.96 57.3516 241.468 57.0142C241.981 56.6723 242.633 56.5014 243.425 56.5014C244.144 56.5014 244.772 56.6521 245.307 56.9535C245.842 57.2549 246.256 57.6957 246.548 58.2759C246.845 58.8562 246.994 59.5646 246.994 60.4013V67H244.551V60.7791C244.551 60.0819 244.371 59.5399 244.012 59.1531C243.656 58.7617 243.157 58.5661 242.514 58.5661C242.082 58.5661 241.695 58.6605 241.353 58.8494C241.016 59.0339 240.75 59.3015 240.557 59.6523C240.368 60.0032 240.274 60.4283 240.274 60.9276ZM258.987 67H254.304V53.1818H259.081C260.453 53.1818 261.632 53.4585 262.617 54.0117C263.606 54.5605 264.367 55.3499 264.897 56.38C265.428 57.41 265.694 58.6425 265.694 60.0774C265.694 61.5168 265.426 62.7538 264.891 63.7884C264.36 64.8229 263.593 65.6168 262.59 66.1701C261.591 66.7234 260.39 67 258.987 67ZM256.808 64.8342H258.865C259.828 64.8342 260.631 64.6587 261.274 64.3079C261.917 63.9525 262.401 63.424 262.725 62.7223C263.049 62.0161 263.211 61.1345 263.211 60.0774C263.211 59.0204 263.049 58.1432 262.725 57.446C262.401 56.7443 261.922 56.2203 261.288 55.8739C260.658 55.5231 259.875 55.3477 258.94 55.3477H256.808V64.8342ZM270.946 67.2092C270.289 67.2092 269.698 67.0922 269.172 66.8583C268.65 66.6199 268.236 66.2691 267.93 65.8058C267.629 65.3424 267.478 64.7712 267.478 64.092C267.478 63.5072 267.586 63.0237 267.802 62.6413C268.018 62.259 268.313 61.9531 268.686 61.7237C269.059 61.4943 269.48 61.3211 269.948 61.2042C270.42 61.0827 270.908 60.995 271.412 60.9411C272.019 60.8781 272.512 60.8219 272.889 60.7724C273.267 60.7184 273.542 60.6374 273.713 60.5295C273.888 60.417 273.976 60.2438 273.976 60.0099V59.9695C273.976 59.4612 273.825 59.0676 273.524 58.7887C273.222 58.5098 272.788 58.3704 272.221 58.3704C271.623 58.3704 271.149 58.5008 270.798 58.7617C270.451 59.0226 270.218 59.3307 270.096 59.6861L267.816 59.3622C267.995 58.7325 268.292 58.2062 268.706 57.7834C269.12 57.3561 269.626 57.0367 270.224 56.8253C270.823 56.6094 271.484 56.5014 272.208 56.5014C272.707 56.5014 273.204 56.5599 273.699 56.6768C274.194 56.7938 274.646 56.9872 275.055 57.2571C275.465 57.5225 275.793 57.8846 276.04 58.3434C276.292 58.8022 276.418 59.3757 276.418 60.0639V67H274.07V65.5763H273.989C273.841 65.8642 273.632 66.1341 273.362 66.386C273.096 66.6334 272.761 66.8336 272.356 66.9865C271.956 67.1349 271.486 67.2092 270.946 67.2092ZM271.58 65.4144C272.071 65.4144 272.496 65.3177 272.856 65.1243C273.215 64.9264 273.492 64.6655 273.686 64.3416C273.883 64.0178 273.982 63.6647 273.982 63.2823V62.0611C273.906 62.1241 273.776 62.1825 273.591 62.2365C273.411 62.2905 273.209 62.3377 272.984 62.3782C272.759 62.4187 272.536 62.4547 272.316 62.4862C272.095 62.5176 271.904 62.5446 271.742 62.5671C271.378 62.6166 271.052 62.6976 270.764 62.81C270.476 62.9225 270.249 63.0799 270.083 63.2823C269.916 63.4802 269.833 63.7366 269.833 64.0515C269.833 64.5013 269.997 64.8409 270.325 65.0703C270.654 65.2997 271.072 65.4144 271.58 65.4144ZM284.049 56.6364V58.5256H278.091V56.6364H284.049ZM279.562 54.1534H282.005V63.8828C282.005 64.2112 282.054 64.4631 282.153 64.6385C282.257 64.8094 282.392 64.9264 282.558 64.9893C282.724 65.0523 282.909 65.0838 283.111 65.0838C283.264 65.0838 283.404 65.0726 283.53 65.0501C283.66 65.0276 283.759 65.0073 283.827 64.9893L284.238 66.8988C284.108 66.9438 283.921 66.9933 283.678 67.0472C283.44 67.1012 283.147 67.1327 282.801 67.1417C282.189 67.1597 281.638 67.0675 281.148 66.8651C280.658 66.6581 280.269 66.3388 279.981 65.907C279.697 65.4751 279.558 64.9354 279.562 64.2876V54.1534ZM289.074 67.2092C288.417 67.2092 287.826 67.0922 287.3 66.8583C286.778 66.6199 286.364 66.2691 286.058 65.8058C285.757 65.3424 285.606 64.7712 285.606 64.092C285.606 63.5072 285.714 63.0237 285.93 62.6413C286.146 62.259 286.44 61.9531 286.814 61.7237C287.187 61.4943 287.608 61.3211 288.076 61.2042C288.548 61.0827 289.036 60.995 289.54 60.9411C290.147 60.8781 290.639 60.8219 291.017 60.7724C291.395 60.7184 291.67 60.6374 291.84 60.5295C292.016 60.417 292.104 60.2438 292.104 60.0099V59.9695C292.104 59.4612 291.953 59.0676 291.652 58.7887C291.35 58.5098 290.916 58.3704 290.349 58.3704C289.751 58.3704 289.277 58.5008 288.926 58.7617C288.579 59.0226 288.345 59.3307 288.224 59.6861L285.943 59.3622C286.123 58.7325 286.42 58.2062 286.834 57.7834C287.248 57.3561 287.754 57.0367 288.352 56.8253C288.95 56.6094 289.612 56.5014 290.336 56.5014C290.835 56.5014 291.332 56.5599 291.827 56.6768C292.322 56.7938 292.774 56.9872 293.183 57.2571C293.592 57.5225 293.921 57.8846 294.168 58.3434C294.42 58.8022 294.546 59.3757 294.546 60.0639V67H292.198V65.5763H292.117C291.969 65.8642 291.759 66.1341 291.49 66.386C291.224 66.6334 290.889 66.8336 290.484 66.9865C290.084 67.1349 289.614 67.2092 289.074 67.2092ZM289.708 65.4144C290.199 65.4144 290.624 65.3177 290.984 65.1243C291.343 64.9264 291.62 64.6655 291.813 64.3416C292.011 64.0178 292.11 63.6647 292.11 63.2823V62.0611C292.034 62.1241 291.903 62.1825 291.719 62.2365C291.539 62.2905 291.337 62.3377 291.112 62.3782C290.887 62.4187 290.664 62.4547 290.444 62.4862C290.223 62.5176 290.032 62.5446 289.87 62.5671C289.506 62.6166 289.18 62.6976 288.892 62.81C288.604 62.9225 288.377 63.0799 288.21 63.2823C288.044 63.4802 287.961 63.7366 287.961 64.0515C287.961 64.5013 288.125 64.8409 288.453 65.0703C288.782 65.2997 289.2 65.4144 289.708 65.4144Z" fill="black"/>
</svg>
