<svg width="298" height="58" viewBox="0 0 298 58" fill="none" xmlns="http://www.w3.org/2000/svg">
<path d="M150.301 17.2058C147.195 13.8064 143.049 11.7468 138.721 11.1077C138.512 11.0696 138.297 11.0719 138.089 11.1146C137.881 11.1573 137.685 11.2394 137.513 11.3561C137.34 11.4728 137.194 11.6217 137.084 11.7938C136.974 11.966 136.901 12.1579 136.871 12.3581C136.84 12.5583 136.853 12.7627 136.907 12.9592C136.962 13.1557 137.057 13.3401 137.187 13.5016C137.318 13.6631 137.481 13.7983 137.667 13.8991C137.853 13.9999 138.058 14.0643 138.269 14.0884C141.879 14.6215 145.319 16.3278 147.917 19.1716C153.354 25.1222 153.113 33.8645 147.603 39.4125L144.516 36.033L141.551 46.5106L152.886 45.194L149.694 41.7005C156.486 35.0721 156.869 24.3947 150.301 17.2058ZM130.45 11.4895L119.115 12.8061L122.307 16.2996C115.515 22.928 115.132 33.6054 121.7 40.7943C124.806 44.1937 128.952 46.2534 133.28 46.8924C133.489 46.9305 133.704 46.9282 133.912 46.8855C134.12 46.8428 134.316 46.7607 134.488 46.644C134.661 46.5273 134.807 46.3784 134.917 46.2063C135.027 46.0342 135.1 45.8423 135.13 45.642C135.161 45.4418 135.148 45.2374 135.094 45.0409C135.039 44.8444 134.944 44.66 134.813 44.4985C134.683 44.337 134.52 44.2018 134.334 44.101C134.148 44.0002 133.943 43.9358 133.732 43.9117C130.122 43.3786 126.682 41.6723 124.084 38.8286C118.647 32.8779 118.888 24.1356 124.397 18.5876L127.485 21.9671L130.45 11.4895Z" fill="black"/>
<path d="M12.4802 45.155C10.2009 45.155 8.14069 44.8383 6.29969 44.205C4.45869 43.5717 3.00342 42.78 1.93389 41.83C0.864358 40.88 0.32959 39.9217 0.32959 38.955C0.32959 38.4883 0.46109 37.98 0.72409 37.43C0.98709 36.88 1.34652 36.4133 1.80239 36.03C2.25826 35.6467 2.76673 35.455 3.32779 35.455C3.88886 35.455 4.41486 35.6467 4.90579 36.03C5.39673 36.4133 5.95779 36.8633 6.58899 37.38C7.22019 37.8967 7.99166 38.3467 8.90339 38.73C9.81513 39.1133 10.9373 39.305 12.2698 39.305C13.3218 39.305 14.2949 39.1467 15.1891 38.83C16.0833 38.5133 16.8022 38.0383 17.3457 37.405C17.8892 36.7717 18.161 35.955 18.161 34.955C18.161 33.8883 17.8629 32.9883 17.2668 32.255C16.6707 31.5217 15.8641 30.8883 14.8472 30.355C13.8303 29.8217 12.7257 29.305 11.5334 28.805C10.3411 28.305 9.14009 27.7717 7.93029 27.205C6.72049 26.6383 5.61589 25.955 4.61649 25.155C3.61709 24.355 2.81056 23.3717 2.19689 22.205C1.58322 21.0383 1.27639 19.605 1.27639 17.905C1.27639 16.0383 1.65336 14.4717 2.40729 13.205C3.16123 11.9383 4.16062 10.9133 5.40549 10.13C6.65036 9.34666 8.02672 8.78 9.53459 8.43C11.0425 8.08 12.5503 7.905 14.0582 7.905C14.8647 7.905 15.8203 7.96333 16.9249 8.08C18.0295 8.19666 19.1341 8.405 20.2387 8.705C21.3433 9.005 22.255 9.41333 22.9739 9.93C23.6928 10.4467 24.0522 11.105 24.0522 11.905C24.0522 12.305 23.9558 12.7717 23.7629 13.305C23.57 13.8383 23.272 14.3133 22.8687 14.73C22.4654 15.1467 21.9482 15.355 21.317 15.355C20.7559 15.355 20.2036 15.1967 19.6601 14.88C19.1166 14.5633 18.4152 14.2467 17.5561 13.93C16.697 13.6133 15.531 13.455 14.0582 13.455C12.8309 13.455 11.7613 13.6133 10.8496 13.93C9.93786 14.2467 9.25406 14.68 8.79819 15.23C8.34232 15.78 8.11439 16.4717 8.11439 17.305C8.11439 18.1717 8.42123 18.905 9.03489 19.505C9.64856 20.105 10.4551 20.6383 11.4545 21.105C12.4539 21.5717 13.5497 22.0383 14.742 22.505C15.9343 22.9717 17.1353 23.5133 18.3451 24.13C19.5549 24.7467 20.6683 25.4883 21.6852 26.355C22.7021 27.2217 23.5087 28.2967 24.1048 29.58C24.7009 30.8633 24.999 32.4383 24.999 34.305C24.999 36.6717 24.4555 38.6633 23.3684 40.28C22.2813 41.8967 20.7998 43.1133 18.9237 43.93C17.0476 44.7467 14.8998 45.155 12.4802 45.155ZM41.568 44.705C40.7264 44.705 39.9462 44.53 39.2273 44.18C38.5084 43.83 38.149 43.3217 38.149 42.655V30.055C38.149 29.8217 38.0964 29.605 37.9912 29.405L27.103 11.505C27.0329 11.3717 26.989 11.2467 26.9715 11.13C26.954 11.0133 26.9452 10.9217 26.9452 10.855C26.9452 10.3217 27.1907 9.855 27.6816 9.455C28.1725 9.055 28.7687 8.73833 29.47 8.505C30.1713 8.27166 30.8376 8.155 31.4688 8.155C32.0299 8.155 32.4507 8.26333 32.7312 8.48C33.0117 8.69666 33.2747 9.02166 33.5202 9.455L41.568 23.905L49.5632 9.455C49.8437 9.02166 50.1243 8.69666 50.4048 8.48C50.6853 8.26333 51.1061 8.155 51.6672 8.155C52.2984 8.155 52.9559 8.27166 53.6397 8.505C54.3235 8.73833 54.9196 9.055 55.4281 9.455C55.9366 9.855 56.1908 10.3217 56.1908 10.855C56.1908 10.9217 56.182 11.0133 56.1645 11.13C56.147 11.2467 56.1031 11.3717 56.033 11.505L45.1448 29.405C45.0396 29.605 44.987 29.8217 44.987 30.055V42.655C44.987 43.3217 44.6276 43.83 43.9087 44.18C43.1898 44.53 42.4096 44.705 41.568 44.705ZM63.1866 44.705C62.345 44.705 61.5648 44.53 60.8459 44.18C60.127 43.83 59.7676 43.3217 59.7676 42.655V10.205C59.7676 9.505 60.127 8.98833 60.8459 8.655C61.5648 8.32167 62.345 8.155 63.1866 8.155C64.0282 8.155 64.7208 8.23833 65.2643 8.405C65.8078 8.57167 66.3163 8.89666 66.7897 9.38C67.2631 9.86333 67.7628 10.605 68.2888 11.605L78.4406 30.255V10.155C78.4406 9.455 78.8 8.94666 79.5189 8.63C80.2378 8.31333 81.018 8.155 81.8596 8.155C82.7363 8.155 83.5253 8.31333 84.2266 8.63C84.9279 8.94666 85.2786 9.455 85.2786 10.155V42.655C85.2786 43.3217 84.9279 43.83 84.2266 44.18C83.5253 44.53 82.7363 44.705 81.8596 44.705C81.0531 44.705 80.3079 44.555 79.6241 44.255C78.9403 43.955 78.388 43.4217 77.9672 42.655L66.6056 22.555V42.655C66.6056 43.3217 66.2549 43.83 65.5536 44.18C64.8523 44.53 64.0633 44.705 63.1866 44.705ZM103.373 45.005C101.199 45.005 99.1825 44.63 97.324 43.88C95.4655 43.13 93.9927 41.9133 92.9056 40.23C91.8185 38.5467 91.275 36.3217 91.275 33.555V19.605C91.275 16.8383 91.8185 14.6133 92.9056 12.93C93.9927 11.2467 95.4655 10.03 97.324 9.28C99.1825 8.53 101.216 8.155 103.426 8.155C105.88 8.155 108.046 8.54666 109.922 9.33C111.798 10.1133 113.271 11.205 114.34 12.605C115.41 14.005 115.944 15.6883 115.944 17.655C115.944 18.955 115.664 19.8133 115.103 20.23C114.542 20.6467 113.683 20.855 112.525 20.855C111.579 20.855 110.781 20.6967 110.132 20.38C109.483 20.0633 109.141 19.5383 109.106 18.805C109.106 18.405 109.045 17.93 108.922 17.38C108.8 16.83 108.563 16.2883 108.212 15.755C107.862 15.2217 107.327 14.7717 106.608 14.405C105.889 14.0383 104.898 13.855 103.636 13.855C101.848 13.855 100.471 14.33 99.5069 15.28C98.5426 16.23 98.0604 17.6717 98.0604 19.605V33.555C98.0604 35.5217 98.5513 36.9717 99.5332 37.905C100.515 38.8383 101.918 39.305 103.741 39.305C104.933 39.305 105.88 39.1217 106.582 38.755C107.283 38.3883 107.8 37.93 108.133 37.38C108.466 36.83 108.694 36.255 108.817 35.655C108.94 35.055 109.036 34.4883 109.106 33.955C109.177 33.1883 109.527 32.655 110.158 32.355C110.79 32.055 111.561 31.905 112.473 31.905C113.665 31.905 114.542 32.1217 115.103 32.555C115.664 32.9883 115.944 33.8383 115.944 35.105C115.944 37.105 115.41 38.855 114.34 40.355C113.271 41.855 111.789 43.005 109.895 43.805C108.002 44.605 105.828 45.005 103.373 45.005Z" fill="black"/>
<path d="M160.857 44.705C160.015 44.705 159.235 44.53 158.516 44.18C157.797 43.83 157.438 43.3217 157.438 42.655V10.155C157.438 9.62166 157.684 9.155 158.174 8.755C158.665 8.355 159.297 8.155 160.068 8.155H170.588C172.832 8.155 174.857 8.52166 176.663 9.255C178.469 9.98833 179.898 11.18 180.95 12.83C182.002 14.48 182.528 16.6717 182.528 19.405V19.705C182.528 22.4383 181.985 24.6383 180.898 26.305C179.811 27.9717 178.329 29.18 176.453 29.93C174.577 30.68 172.482 31.055 170.167 31.055H164.276V42.655C164.276 43.3217 163.925 43.83 163.224 44.18C162.523 44.53 161.734 44.705 160.857 44.705ZM164.276 13.855V25.955H170.167C171.921 25.955 173.279 25.48 174.244 24.53C175.208 23.58 175.69 22.1383 175.69 20.205V19.605C175.69 17.6717 175.208 16.23 174.244 15.28C173.279 14.33 171.921 13.855 170.167 13.855H164.276ZM190.155 44.705C189.314 44.705 188.533 44.53 187.815 44.18C187.096 43.83 186.736 43.3217 186.736 42.655V10.155C186.736 9.455 187.096 8.94666 187.815 8.63C188.533 8.31333 189.314 8.155 190.155 8.155C191.032 8.155 191.821 8.31333 192.522 8.63C193.224 8.94666 193.574 9.455 193.574 10.155V23.205H205.409V10.155C205.409 9.455 205.769 8.94666 206.488 8.63C207.206 8.31333 207.987 8.155 208.828 8.155C209.705 8.155 210.494 8.31333 211.195 8.63C211.897 8.94666 212.247 9.455 212.247 10.155V42.655C212.247 43.3217 211.897 43.83 211.195 44.18C210.494 44.53 209.705 44.705 208.828 44.705C207.987 44.705 207.206 44.53 206.488 44.18C205.769 43.83 205.409 43.3217 205.409 42.655V28.305H193.574V42.655C193.574 43.3217 193.224 43.83 192.522 44.18C191.821 44.53 191.032 44.705 190.155 44.705ZM222.031 44.705C221.189 44.705 220.409 44.53 219.69 44.18C218.971 43.83 218.612 43.3217 218.612 42.655V10.155C218.612 9.455 218.971 8.94666 219.69 8.63C220.409 8.31333 221.189 8.155 222.031 8.155C222.908 8.155 223.697 8.31333 224.398 8.63C225.099 8.94666 225.45 9.455 225.45 10.155V42.655C225.45 43.3217 225.099 43.83 224.398 44.18C223.697 44.53 222.908 44.705 222.031 44.705ZM251.539 44.705H234.813C234.076 44.705 233.392 44.53 232.761 44.18C232.13 43.83 231.814 43.3217 231.814 42.655V10.155C231.814 9.455 232.174 8.94666 232.893 8.63C233.612 8.31333 234.392 8.155 235.233 8.155C236.11 8.155 236.899 8.31333 237.6 8.63C238.302 8.94666 238.652 9.455 238.652 10.155V39.005H251.539C252.206 39.005 252.705 39.2967 253.039 39.88C253.372 40.4633 253.538 41.1217 253.538 41.855C253.538 42.555 253.372 43.205 253.039 43.805C252.705 44.405 252.206 44.705 251.539 44.705ZM260.639 44.705C259.798 44.705 259.017 44.53 258.299 44.18C257.58 43.83 257.22 43.3217 257.22 42.655V10.155C257.22 9.455 257.58 8.94666 258.299 8.63C259.017 8.31333 259.798 8.155 260.639 8.155C261.516 8.155 262.305 8.31333 263.006 8.63C263.708 8.94666 264.058 9.455 264.058 10.155V42.655C264.058 43.3217 263.708 43.83 263.006 44.18C262.305 44.53 261.516 44.705 260.639 44.705ZM272.053 44.705C271.422 44.705 270.774 44.5883 270.107 44.355C269.441 44.1217 268.88 43.805 268.424 43.405C267.968 43.005 267.74 42.5383 267.74 42.005C267.74 41.905 267.758 41.7383 267.793 41.505L277.945 10.055C278.19 9.32166 278.742 8.77166 279.602 8.405C280.461 8.03833 281.381 7.855 282.363 7.855C283.38 7.855 284.309 8.03833 285.151 8.405C285.992 8.77166 286.536 9.32166 286.781 10.055L296.933 41.505C297.003 41.7383 297.038 41.905 297.038 42.005C297.038 42.505 296.802 42.9633 296.328 43.38C295.855 43.7967 295.285 44.1217 294.619 44.355C293.953 44.5883 293.304 44.705 292.673 44.705C292.112 44.705 291.629 44.6133 291.226 44.43C290.823 44.2467 290.551 43.905 290.411 43.405L288.412 36.755H276.314L274.368 43.405C274.228 43.905 273.947 44.2467 273.526 44.43C273.105 44.6133 272.615 44.705 272.053 44.705ZM282.363 16.305L277.787 31.655H286.939L282.363 16.305Z" fill="black"/>
</svg>
